<?xml version="1.0" encoding="utf-8"?>
<!-- Svg Vector Icons : http://www.onlinewebfonts.com/icon -->
<!DOCTYPE svg PUBLIC "-//W3C//DTD SVG 1.1//EN" "http://www.w3.org/Graphics/SVG/1.1/DTD/svg11.dtd">
<svg version="1.1" xmlns="http://www.w3.org/2000/svg" xmlns:xlink="http://www.w3.org/1999/xlink" x="0px" y="0px" viewBox="0 0 1000 1000" enable-background="new 0 0 1000 1000" xml:space="preserve">
<metadata> Svg Vector Icons : http://www.onlinewebfonts.com/icon </metadata>
<g><path d="M491.7,10.1h16.6c302.3-6.6,256,364.7,157.8,535.2c-18.4,32-41,62.8-37.4,91.3C643,748,904.2,720.7,960.9,786c40.5,46.6,16.4,112.3,29.1,203.3c-325.3-2.8-661.6,5.5-980-4.2C22.9,895.8-0.8,831.9,39.1,786c62.4-71.8,322.5-35.1,332.2-153.5c2.2-26.7-18.6-54.6-37.4-87.1C229.7,364.5,195.6,3,491.7,10.1L491.7,10.1z"/></g>
</svg>